# xmcd
#
# Track frame offsets: 
#        150
#        17625
#        32745
#        50040
#        63427
#        80735
#        96305
#        116107
#        131265
#        149827
#        173080
#        199995
#
# Disc length: 2947 seconds
#
# Revision: 6
# Processed by: cddbd v1.5.2PL0 Copyright (c) Steve Scherf et al.
# Submitted via: ExactAudioCopy v0.99pb5
#
DISCID=b30b810c
DTITLE=Trisha Yearwood - Where Your Road Leads
DYEAR=1998
DGENRE=Country
TTITLE0=There Goes My Baby
TTITLE1=Never Let You Go Again
TTITLE2=That Ain't The Way I Heard It
TTITLE3=Powerful Thing
TTITLE4=Love Wouldn't Lie To Me
TTITLE5=Wouldn't Any Woman
TTITLE6=I'll Still Love You More
TTITLE7=Heart Like A Sad Song
TTITLE8=I Don't Want To Be The One
TTITLE9=Bring Me All Your Lovin'
TTITLE10=Where Your Road Leads (The Duet With Garth Brooks)
TTITLE11=Data
EXTD=
EXTT0=\n
EXTT1=
EXTT2=
EXTT3=
EXTT4=
EXTT5=
EXTT6=
EXTT7=
EXTT8=
EXTT9=
EXTT10=
EXTT11=
PLAYORDER=
